<?xml version="1.0" standalone="no"?>
<!DOCTYPE svg PUBLIC "-//W3C//DTD SVG 20010904//EN"
 "http://www.w3.org/TR/2001/REC-SVG-20010904/DTD/svg10.dtd">
<svg version="1.0" xmlns="http://www.w3.org/2000/svg"
 width="1069.000000pt" height="1069.000000pt" viewBox="0 0 1069.000000 1069.000000"
 preserveAspectRatio="xMidYMid meet">
<metadata>
Created by potrace 1.11, written by Peter Selinger 2001-2013
</metadata>
<g transform="translate(0.000000,1069.000000) scale(0.100000,-0.100000)"
fill="#000000" stroke="none">
<path d="M5334 10682 c4 -7 1 -15 -8 -18 -9 -3 -16 -13 -16 -21 0 -8 -4 -11
-10 -8 -5 3 -10 0 -10 -8 0 -8 -17 -33 -39 -56 -21 -22 -36 -43 -33 -46 3 -3
-6 -5 -19 -5 -19 0 -21 -2 -9 -10 14 -9 13 -11 -9 -14 -5 0 -13 -5 -18 -10 -5
-5 -3 -6 5 -2 6 4 12 2 12 -4 0 -6 -7 -13 -15 -16 -8 -4 -15 -10 -15 -15 0
-15 -42 -59 -51 -53 -5 3 -6 -1 -3 -9 3 -9 -6 -24 -22 -36 -15 -11 -24 -21
-20 -21 4 0 2 -6 -4 -12 -5 -7 -20 -25 -31 -41 -11 -15 -25 -24 -31 -21 -6 4
-8 2 -5 -3 9 -14 -63 -105 -78 -99 -7 2 -18 0 -26 -6 -11 -8 -11 -9 3 -4 10 3
20 1 22 -3 6 -10 -38 -54 -46 -46 -3 3 -11 -3 -19 -12 -13 -16 -12 -17 4 -4
10 8 17 9 17 3 0 -6 -9 -16 -21 -22 -11 -7 -18 -14 -15 -17 3 -3 -2 -13 -12
-22 -9 -9 -22 -25 -29 -36 -6 -11 -16 -19 -22 -18 -6 2 -10 0 -9 -5 4 -15 -23
-52 -34 -46 -6 4 -8 3 -5 -3 4 -6 0 -16 -8 -23 -8 -7 -15 -18 -15 -25 0 -7 -7
-16 -16 -19 -12 -5 -15 -2 -10 9 3 10 2 13 -5 10 -6 -4 -8 -13 -5 -21 7 -18
-24 -55 -38 -47 -6 3 -8 3 -4 -2 11 -11 -11 -47 -24 -39 -7 4 -8 3 -4 -5 10
-16 -26 -59 -44 -52 -35 14 -110 64 -110 73 0 5 -5 6 -10 3 -6 -3 -13 1 -16 9
-3 9 -10 14 -14 11 -4 -2 -20 7 -36 20 -16 14 -35 25 -41 25 -7 0 -13 3 -13 8
0 4 -20 18 -45 31 -24 13 -42 27 -39 32 3 5 -4 9 -15 9 -24 0 -36 16 -19 24 7
3 3 3 -9 0 -13 -3 -23 -1 -23 4 0 5 -8 13 -17 16 -27 9 -61 31 -89 55 -13 11
-24 18 -24 13 -1 -4 -9 3 -19 15 -10 12 -21 19 -25 16 -3 -4 -6 -1 -6 6 0 7
-4 9 -10 6 -5 -3 -10 1 -10 10 0 9 -6 15 -12 14 -27 -3 -37 2 -43 21 -3 11
-11 20 -16 20 -6 0 -7 -6 -3 -12 4 -7 -2 -5 -12 5 -16 15 -17 20 -5 40 13 20
13 21 -1 9 -9 -7 -24 -9 -34 -6 -17 6 -17 5 1 -10 20 -17 20 -17 -3 -6 -13 6
-26 18 -29 26 -3 7 -9 12 -13 9 -4 -2 -17 3 -28 13 -12 9 -39 28 -61 41 -21
13 -44 35 -51 49 -8 18 -14 22 -22 14 -8 -8 -19 -7 -40 6 -15 9 -28 20 -28 24
0 4 -9 8 -19 8 -17 0 -38 -40 -32 -64 1 -5 -6 -5 -16 -2 -14 6 -15 4 -6 -5 13
-13 6 -42 -8 -33 -5 3 -7 -1 -4 -8 3 -7 -2 -31 -10 -53 -8 -22 -14 -35 -15
-30 0 6 -5 2 -11 -8 -10 -17 -12 -17 -29 -2 -12 11 -20 13 -25 5 -4 -6 -1 -9
7 -8 7 2 12 -3 10 -10 -1 -8 2 -11 8 -7 5 3 10 1 10 -6 0 -7 7 -4 15 7 18 23
19 15 3 -23 -6 -15 -11 -31 -10 -35 2 -8 -14 -12 -31 -9 -5 1 -6 -3 -2 -9 3
-6 10 -8 15 -5 10 6 7 -21 -3 -31 -4 -4 -7 -18 -7 -31 0 -12 -5 -23 -11 -23
-5 0 -7 -5 -3 -11 4 -8 -1 -9 -17 -4 -17 4 -20 4 -10 -4 17 -11 23 -39 10 -47
-5 -3 -9 -14 -9 -25 0 -17 -3 -18 -22 -8 -21 11 -22 11 -8 -5 21 -26 21 -44
-2 -60 -14 -10 -16 -15 -6 -20 10 -5 10 -7 0 -12 -6 -3 -10 -9 -7 -13 9 -15
-61 -196 -75 -193 -11 3 -11 0 0 -12 7 -9 8 -16 2 -16 -5 0 -10 -6 -9 -12 1
-42 -3 -50 -25 -45 -21 6 -22 5 -5 -7 13 -10 16 -21 11 -40 -3 -14 -10 -26
-16 -26 -5 0 -7 -4 -4 -9 7 -11 -3 -41 -14 -41 -4 0 -6 11 -5 25 2 14 -1 23
-6 19 -5 -3 -7 -10 -3 -15 3 -5 0 -17 -7 -25 -10 -12 -10 -15 2 -12 8 2 14 -4
14 -12 0 -8 -7 -14 -15 -12 -11 3 -12 1 -4 -8 13 -13 -3 -83 -16 -75 -4 2 -5
-7 -2 -22 3 -19 1 -24 -7 -18 -8 5 -11 1 -9 -11 4 -22 -32 -27 -72 -11 -14 5
-35 9 -47 8 -13 -1 -23 3 -23 9 0 7 -8 9 -20 5 -23 -7 -26 4 -7 25 6 8 3 7 -9
-3 -24 -20 -38 -22 -28 -4 6 9 5 9 -8 0 -8 -7 -17 -10 -20 -8 -3 3 -14 7 -24
9 -65 14 -121 33 -132 46 -10 13 -11 13 -6 -3 6 -15 3 -16 -17 -8 -22 8 -93
26 -147 36 -13 2 -32 7 -42 10 -26 8 -59 15 -102 22 -21 3 -38 9 -38 12 0 4
-8 7 -17 7 -10 1 -31 4 -48 7 -16 4 -43 9 -60 13 -58 11 -59 12 -41 42 l17 27
-23 -27 c-24 -28 -48 -37 -48 -17 0 5 4 8 9 4 5 -3 13 0 17 6 4 7 3 9 -4 5 -6
-3 -13 2 -15 11 -4 17 -5 17 -6 0 -1 -11 -6 -15 -13 -11 -7 4 -8 3 -4 -4 14
-23 -25 -12 -50 13 -22 23 -25 23 -19 5 5 -15 3 -18 -9 -14 -9 3 -13 11 -9 18
4 7 2 7 -7 -1 -8 -7 -19 -9 -29 -4 -9 5 -35 12 -58 16 -40 6 -41 6 -39 -19 2
-16 -1 -23 -8 -19 -6 4 -5 -1 3 -10 9 -12 10 -17 2 -17 -7 0 -9 -5 -5 -12 11
-17 12 -138 2 -132 -4 3 -8 1 -8 -5 0 -5 6 -11 13 -14 8 -3 6 -10 -8 -22 -17
-14 -17 -16 -2 -11 9 3 17 1 17 -4 0 -6 -6 -10 -12 -10 -9 0 -8 -4 2 -10 13
-9 13 -11 0 -20 -12 -8 -12 -10 -1 -10 9 0 11 -7 8 -22 -4 -12 -1 -28 5 -35 7
-9 6 -14 -7 -19 -13 -5 -14 -9 -4 -15 15 -9 20 -48 6 -56 -5 -3 -3 -10 4 -15
10 -7 8 -8 -9 -5 -12 3 -20 1 -16 -4 3 -5 11 -9 18 -9 7 0 12 -12 12 -27 -1
-28 -16 -54 -27 -47 -3 2 -6 -3 -6 -11 0 -13 3 -13 17 0 15 14 17 13 17 -2 0
-10 -5 -21 -11 -25 -8 -5 -7 -8 2 -8 6 0 12 -7 12 -15 0 -13 -11 -19 -32 -17
-3 1 -12 -6 -20 -15 -11 -14 -11 -16 2 -8 29 18 50 16 50 -5 0 -11 -6 -20 -12
-20 -9 0 -9 -3 -2 -8 15 -11 17 -82 2 -83 -7 0 -4 -4 7 -9 15 -7 16 -9 4 -9
-9 -1 -23 -9 -30 -18 -13 -16 -12 -17 4 -4 9 8 19 12 22 9 2 -2 6 -61 8 -131
3 -108 1 -127 -12 -130 -14 -4 -14 -5 0 -6 13 -1 17 -12 17 -56 0 -30 -4 -52
-9 -49 -4 2 -2 -7 6 -22 18 -34 9 -54 -24 -55 -45 -3 -86 -7 -86 -9 0 -2 -11
-3 -25 -4 -14 -1 -30 -5 -37 -9 -6 -4 -15 -2 -19 4 -4 8 -9 7 -15 -2 -8 -12
-11 -11 -19 1 -8 12 -10 12 -10 1 0 -11 -3 -11 -17 0 -11 10 -14 10 -9 2 4 -7
4 -13 -1 -14 -93 -10 -95 -9 -89 6 3 9 2 13 -4 10 -6 -3 -10 -13 -10 -21 0 -9
-6 -14 -12 -11 -7 2 -12 10 -10 16 1 7 -2 10 -8 6 -6 -3 -7 -11 -4 -17 5 -7
-4 -9 -24 -6 -17 2 -29 1 -26 -4 3 -4 0 -8 -5 -8 -6 0 -11 5 -11 10 0 6 -5 10
-11 10 -5 0 -8 -4 -5 -9 3 -5 -12 -11 -33 -13 -25 -2 -37 0 -33 7 3 5 -1 5 -9
-2 -17 -13 -81 -25 -74 -13 3 5 1 12 -5 15 -6 4 -9 1 -8 -6 2 -9 -17 -16 -56
-22 -50 -7 -61 -6 -79 10 -16 13 -19 14 -9 2 10 -14 10 -18 -4 -23 -25 -10
-56 -7 -49 4 4 6 -8 2 -26 -9 -33 -20 -56 -18 -76 8 -10 13 -11 12 -7 -9 5
-20 3 -22 -5 -10 -7 10 -11 11 -11 3 0 -7 -9 -13 -19 -13 -11 0 -21 6 -24 13
-3 9 -8 9 -18 -2 -9 -9 -9 -11 -1 -7 6 4 12 3 12 -2 0 -5 -20 -9 -45 -8 -25 1
-45 -1 -45 -4 0 -3 -21 -6 -46 -7 -26 -2 -54 -9 -64 -18 -9 -8 -20 -12 -25 -8
-4 5 -5 2 -1 -5 6 -9 11 -10 21 -2 17 14 40 -46 25 -65 -8 -10 -6 -13 6 -11 9
0 19 -5 22 -13 3 -8 0 -11 -7 -7 -6 4 -11 2 -11 -3 0 -6 6 -11 14 -11 9 0 13
-7 11 -20 -2 -11 1 -20 6 -20 6 0 8 -4 5 -9 -4 -5 -2 -11 3 -13 5 -1 19 -27
30 -56 12 -29 18 -51 13 -48 -4 2 -14 0 -22 -5 -13 -9 -13 -10 0 -8 40 4 58
-15 22 -24 -12 -3 -10 -5 7 -6 17 -1 21 -5 17 -17 -4 -10 -2 -13 6 -8 8 5 9 2
5 -9 -3 -9 -2 -19 3 -22 7 -5 69 -155 74 -180 1 -5 5 -16 9 -22 12 -20 46
-123 41 -123 -3 0 2 -7 10 -16 9 -8 14 -20 11 -25 -4 -5 -2 -9 3 -9 6 0 13
-11 16 -25 3 -13 11 -37 18 -52 6 -15 12 -32 13 -38 2 -5 4 -17 6 -25 2 -8 8
-18 12 -21 5 -3 10 -12 11 -20 2 -8 8 -27 15 -42 6 -16 8 -33 5 -39 -4 -7 -2
-8 4 -4 8 5 12 0 12 -13 0 -11 4 -22 10 -26 5 -3 6 -13 3 -22 -5 -12 -3 -14 7
-8 10 6 12 4 7 -8 -4 -10 -2 -17 5 -17 7 0 6 -5 -2 -15 -7 -9 -10 -18 -6 -22
3 -3 6 -1 6 5 0 7 4 12 9 12 6 0 9 -9 8 -19 -1 -13 -22 -29 -67 -51 -36 -17
-87 -42 -115 -57 -27 -14 -55 -26 -60 -27 -6 -1 -25 -12 -43 -25 -18 -13 -44
-24 -57 -25 -13 0 -21 -4 -19 -7 5 -9 -46 -30 -57 -23 -5 3 -8 1 -7 -5 2 -5
-18 -20 -44 -34 -42 -21 -46 -22 -43 -5 2 10 0 16 -6 13 -5 -4 -7 -10 -4 -15
9 -14 -27 -42 -46 -37 -10 3 -17 0 -16 -7 1 -6 -8 -11 -20 -10 -12 0 -21 -4
-20 -10 1 -6 -4 -10 -11 -9 -6 2 -12 -2 -12 -8 0 -5 -4 -7 -10 -4 -5 3 -10 2
-10 -3 0 -8 -63 -37 -74 -34 -3 1 -15 -7 -26 -18 -12 -12 -25 -18 -30 -15 -6
4 -10 2 -10 -3 0 -4 -21 -19 -47 -31 -27 -12 -60 -29 -76 -37 -15 -8 -32 -12
-39 -8 -6 4 -8 3 -5 -3 6 -9 -29 -32 -44 -29 -4 0 -16 -7 -28 -18 -11 -10 -27
-16 -36 -12 -20 7 -6 -21 24 -48 14 -13 19 -26 15 -40 -4 -17 -3 -18 5 -6 10
13 14 11 30 -10 11 -13 17 -28 15 -32 -3 -4 0 -8 6 -8 18 0 42 -29 34 -41 -4
-7 -3 -9 3 -6 13 8 36 -17 25 -28 -4 -5 -2 -5 5 -1 15 8 38 -30 23 -39 -5 -3
-10 -11 -10 -18 0 -6 7 -2 15 9 12 16 16 17 24 4 5 -8 7 -18 4 -24 -3 -5 -2
-6 4 -3 6 4 21 -5 34 -20 13 -14 18 -23 12 -19 -7 4 -13 2 -13 -3 0 -6 6 -11
14 -11 15 0 117 -110 126 -137 3 -8 9 -14 13 -14 19 2 19 0 1 -14 -16 -13 -17
-14 -1 -9 21 8 60 -24 53 -43 -3 -7 0 -15 6 -19 7 -4 8 -3 4 4 -12 20 8 13 27
-8 9 -11 17 -22 17 -25 0 -3 14 -18 30 -33 29 -28 41 -50 20 -37 -6 4 -7 -1
-3 -11 4 -11 8 -13 11 -6 6 20 25 14 19 -7 -3 -12 1 -18 12 -17 9 0 15 -5 13
-12 -1 -6 1 -11 5 -10 15 5 105 -101 97 -113 -4 -7 -3 -9 4 -5 5 3 33 -19 60
-50 l49 -57 -40 -43 c-22 -24 -45 -40 -50 -37 -6 3 -7 2 -4 -4 8 -13 -60 -89
-76 -85 -7 2 -9 0 -5 -4 11 -10 -12 -35 -26 -27 -6 3 -8 3 -4 -1 6 -7 -7 -25
-76 -100 -83 -91 -118 -126 -127 -126 -6 0 -7 -5 -3 -12 5 -8 2 -9 -10 -5 -10
4 -15 3 -11 -3 8 -13 -75 -101 -88 -93 -6 3 -7 1 -3 -5 4 -6 -2 -17 -14 -24
-11 -7 -20 -17 -20 -21 0 -11 -30 -41 -30 -30 0 4 -6 -3 -13 -17 -8 -14 -19
-24 -26 -22 -7 1 -10 -2 -7 -7 4 -5 -2 -16 -12 -23 -9 -7 -37 -37 -61 -66 -24
-28 -50 -52 -58 -52 -8 0 -12 -4 -9 -9 8 -13 -21 -34 -35 -25 -8 4 -9 3 -5 -4
8 -14 -17 -55 -27 -45 -4 3 -7 3 -7 0 0 -4 20 -16 45 -28 25 -12 45 -25 45
-31 0 -5 5 -6 10 -3 6 3 10 -2 10 -12 0 -12 3 -14 8 -6 5 8 11 8 24 -1 10 -7
14 -17 10 -21 -4 -5 -2 -5 5 -1 14 8 76 -28 66 -38 -4 -4 0 -4 10 0 10 3 17 1
17 -6 0 -6 4 -9 9 -5 5 3 15 0 23 -7 7 -7 18 -14 23 -15 24 -4 94 -50 88 -58
-5 -4 -3 -5 3 -2 11 6 74 -19 74 -29 0 -3 -4 -3 -8 0 -5 3 -9 -1 -9 -9 0 -11
4 -12 13 -4 8 7 23 3 50 -12 22 -12 69 -37 106 -57 38 -19 65 -39 61 -45 -3
-5 -1 -7 5 -3 13 8 62 -13 62 -27 0 -6 2 -8 5 -5 5 5 58 -23 290 -152 33 -18
63 -37 66 -43 10 -14 -2 -48 -14 -40 -5 3 -7 1 -4 -4 9 -14 -47 -146 -57 -136
-4 4 -4 0 -1 -9 3 -8 0 -22 -7 -29 -7 -8 -14 -21 -16 -29 -8 -39 -35 -99 -43
-94 -5 3 -6 -3 -2 -12 5 -13 3 -15 -7 -9 -9 5 -11 4 -6 -4 11 -17 -16 -81 -34
-82 -9 0 -10 -2 -3 -5 9 -4 8 -15 -5 -42 -9 -20 -21 -40 -25 -43 -5 -3 -8 -10
-8 -15 2 -19 -21 -74 -29 -69 -4 3 -6 -4 -3 -15 3 -11 1 -20 -4 -20 -5 0 -10
-6 -10 -12 0 -7 -9 -33 -20 -58 -11 -25 -26 -60 -34 -78 -8 -17 -18 -32 -22
-32 -5 0 -6 -4 -2 -10 3 -5 1 -17 -4 -27 -5 -10 -12 -26 -15 -36 -3 -10 -10
-16 -15 -13 -5 3 -7 -4 -3 -16 4 -16 2 -19 -8 -13 -8 5 -11 4 -7 -2 10 -16
-13 -74 -26 -66 -5 3 -7 1 -3 -5 3 -6 1 -23 -5 -39 -6 -15 -10 -30 -11 -33 0
-3 -4 -10 -9 -16 -11 -13 15 -24 69 -29 19 -2 50 -7 70 -11 43 -9 61 -11 103
-13 16 0 28 -4 26 -9 -3 -4 14 -8 36 -8 47 -1 122 -10 158 -18 34 -8 76 -15
138 -22 30 -3 62 -8 70 -9 9 -2 22 -4 29 -4 8 -1 10 -6 6 -13 -6 -10 -4 -10 7
-2 10 8 34 8 89 -2 41 -7 93 -15 115 -18 22 -3 56 -8 75 -11 111 -17 168 -26
193 -27 15 -1 27 -5 27 -9 0 -4 8 -6 18 -5 15 1 17 -9 13 -114 -1 -63 -7 -120
-13 -127 -5 -6 -5 -14 0 -17 4 -2 7 -20 5 -38 -3 -45 -13 -213 -19 -328 -3
-52 -6 -124 -8 -160 -2 -36 -5 -98 -6 -138 -2 -40 -7 -75 -12 -78 -4 -3 -5
-11 -1 -17 10 -16 9 -49 -2 -66 -6 -10 -4 -12 5 -6 9 5 11 4 6 -3 -4 -7 -9
-39 -11 -72 -4 -65 -3 -66 55 -50 19 5 51 11 70 14 19 2 35 5 35 6 0 2 20 6
66 14 20 3 42 8 50 11 8 3 33 7 55 9 21 2 46 6 54 10 8 3 31 7 50 8 19 2 37 6
40 9 11 12 300 65 300 54 0 -5 4 -4 8 3 5 7 22 14 38 17 16 2 45 7 64 10 19 4
43 7 53 8 9 1 17 4 17 7 0 4 6 7 13 7 18 0 70 10 177 32 96 20 107 18 111 -16
2 -16 4 -23 12 -43 9 -24 37 -115 42 -136 2 -10 22 -77 45 -149 23 -71 43
-137 45 -145 2 -8 20 -69 40 -134 21 -66 38 -124 40 -130 1 -6 5 -18 8 -26 7
-18 33 -105 78 -258 29 -98 36 -111 52 -106 18 6 116 63 127 74 3 3 16 11 30
19 14 8 88 53 165 100 663 405 746 454 755 445 5 -5 110 -144 234 -309 123
-165 228 -305 233 -310 4 -6 66 -88 137 -182 l129 -172 21 28 c12 15 35 46 53
67 17 21 107 134 200 250 92 116 184 230 204 255 19 24 98 122 174 217 76 95
143 171 150 169 6 -3 90 -57 187 -120 235 -154 261 -171 273 -177 6 -3 89 -57
185 -120 291 -193 371 -243 375 -238 4 4 387 1128 402 1181 4 12 12 16 23 12
10 -3 27 -7 37 -9 10 -2 36 -9 58 -14 22 -6 51 -13 65 -16 14 -3 34 -7 45 -10
83 -19 122 -28 136 -31 8 -2 45 -10 82 -19 131 -31 195 -46 457 -106 146 -33
273 -63 283 -66 16 -5 17 6 12 178 -2 101 -7 291 -10 423 -3 132 -7 336 -10
453 -5 185 -3 212 10 213 8 1 18 2 23 3 4 1 39 6 77 10 39 5 77 9 85 11 8 1
42 6 75 9 33 4 71 9 85 11 63 8 119 15 160 20 44 5 88 10 180 21 25 3 61 7 80
9 19 2 51 6 70 9 19 3 58 8 85 11 28 3 64 7 80 9 17 3 62 8 100 12 39 4 77 9
86 13 14 5 -2 53 -103 311 -66 168 -134 343 -152 390 -18 47 -68 174 -110 284
-43 109 -76 199 -74 201 4 3 1012 514 1055 535 18 8 32 17 32 20 0 3 -18 25
-40 50 -22 25 -80 90 -127 145 -48 55 -96 109 -107 121 -11 12 -41 45 -67 75
-74 85 -80 92 -140 160 -70 80 -67 76 -218 248 -69 79 -126 147 -128 151 -2 5
24 37 56 72 33 35 74 79 92 98 36 40 244 261 305 325 22 23 77 82 122 131 45
49 121 130 167 179 47 50 86 92 86 96 0 3 -19 15 -42 27 -58 29 -242 130 -358
195 -19 11 -66 37 -105 57 -151 80 -312 169 -363 199 -29 17 -55 31 -58 31 -8
0 -184 101 -184 106 0 2 13 32 29 66 15 35 51 116 78 181 27 64 53 114 58 110
4 -5 5 -3 1 4 -3 7 2 31 13 55 48 108 121 286 121 296 0 7 4 12 10 12 5 0 9 3
8 8 -4 11 55 146 67 154 5 4 6 8 1 8 -5 0 -4 6 1 13 6 6 13 25 17 40 4 17 11
25 18 21 6 -4 8 -3 5 3 -8 13 23 94 34 87 5 -3 6 2 3 10 -3 8 0 24 6 35 14 27
3 31 -145 47 -71 7 -78 9 -92 17 -7 5 -13 5 -13 0 0 -4 -5 -1 -10 7 -5 8 -10
10 -10 5 0 -7 -15 -9 -35 -7 -19 2 -35 9 -35 14 0 6 -6 6 -14 -1 -10 -8 -16
-9 -21 -1 -4 6 -12 10 -18 8 -7 -1 -34 2 -62 6 -27 4 -66 10 -85 12 -66 10
-95 14 -124 20 -16 4 -40 7 -55 9 -90 9 -257 39 -262 47 -4 6 -9 6 -13 -1 -4
-6 -12 -9 -17 -5 -10 6 -28 9 -109 19 -97 12 -113 15 -119 20 -6 7 -3 151 5
185 2 14 6 73 7 132 1 60 4 108 7 108 3 0 6 39 6 88 1 48 5 150 9 227 4 77 8
156 9 175 1 19 5 41 9 48 5 6 5 12 0 12 -4 0 -7 21 -5 46 3 37 7 44 21 40 14
-5 14 -5 0 6 -12 10 -14 28 -11 84 4 66 2 72 -17 77 -12 3 -19 1 -15 -4 4 -7
-51 -15 -78 -10 -5 0 -8 -3 -8 -8 0 -6 -8 -9 -17 -9 -19 1 -77 -9 -107 -18
-10 -4 -22 0 -27 7 -7 11 -9 11 -9 -1 0 -15 -112 -45 -200 -54 -19 -2 -53 -8
-75 -14 -22 -6 -56 -14 -75 -17 -82 -14 -94 -16 -99 -19 -9 -6 -82 -18 -113
-20 -16 0 -28 -5 -28 -10 0 -5 -3 -7 -6 -4 -3 3 -33 -1 -67 -8 -34 -8 -77 -17
-96 -20 -18 -3 -43 -8 -55 -11 -59 -14 -96 -20 -96 -15 0 2 -7 -1 -15 -8 -12
-10 -15 -10 -15 1 0 12 -2 12 -9 0 -7 -11 -11 -10 -20 7 -6 11 -11 30 -11 41
0 11 -5 23 -11 26 -6 4 -8 13 -5 21 3 7 0 16 -5 20 -6 3 -9 15 -6 25 3 11 1
17 -4 13 -5 -3 -10 3 -11 13 -2 33 -3 38 -11 50 -4 6 -8 23 -9 37 -1 14 -6 26
-10 26 -4 0 -8 8 -8 18 0 9 -7 36 -15 60 -9 24 -12 48 -9 54 4 7 2 8 -4 4 -7
-4 -12 -2 -12 3 0 6 5 11 12 11 6 0 4 6 -6 13 -10 7 -19 25 -19 40 -1 15 -5
27 -8 27 -3 0 -6 6 -6 13 -1 6 -6 27 -11 45 -6 17 -8 32 -4 32 4 0 2 4 -3 8
-12 8 -75 211 -75 241 0 11 -4 21 -9 23 -5 2 -11 17 -14 33 -2 17 -9 43 -16
59 -6 16 -9 36 -7 43 3 8 1 11 -4 8 -6 -3 -11 3 -11 14 -2 23 -3 29 -12 51 -3
8 -11 32 -17 53 -7 24 -16 35 -23 30 -7 -4 -35 -22 -63 -40 -29 -18 -58 -34
-65 -35 -8 -2 -17 -7 -21 -13 -4 -5 -11 -10 -16 -10 -5 0 -16 -8 -26 -17 -10
-10 -22 -18 -27 -18 -5 0 -11 0 -14 0 -3 0 -14 -9 -25 -20 -12 -12 -25 -18
-30 -15 -6 4 -10 2 -10 -2 0 -8 -52 -43 -67 -45 -5 -1 -12 -7 -18 -13 -5 -7
-32 -25 -60 -40 -27 -15 -62 -36 -77 -46 -14 -11 -31 -19 -37 -19 -6 0 -11 -4
-11 -10 0 -5 -4 -10 -9 -10 -5 0 -35 -16 -66 -35 -32 -19 -63 -32 -69 -28 -6
3 -8 3 -4 -2 11 -11 -20 -37 -47 -39 -13 0 -23 -5 -22 -9 1 -5 -7 -14 -18 -20
-10 -7 -25 -18 -33 -24 -7 -7 -18 -13 -23 -13 -5 0 -24 -10 -42 -22 -18 -12
-44 -30 -60 -40 -15 -11 -32 -16 -37 -13 -6 3 -10 -1 -10 -9 0 -9 -6 -16 -14
-16 -7 0 -19 -7 -26 -15 -17 -21 -32 -15 -59 25 -14 19 -30 40 -35 47 -29 33
-36 43 -32 43 3 0 -6 11 -20 25 -15 15 -22 30 -18 38 4 6 4 9 -1 5 -9 -8 -42
31 -37 45 1 4 -4 7 -12 7 -8 0 -18 9 -21 20 -4 11 -16 31 -28 43 -58 60 -91
120 -45 81 14 -12 18 -13 10 -3 -6 9 -9 19 -6 22 4 4 -3 5 -14 2 -12 -2 -28 5
-39 18 -18 21 -18 21 2 7 11 -7 4 2 -15 22 -45 47 -62 68 -55 68 3 0 -6 12
-20 26 -15 14 -24 33 -21 41 3 8 1 11 -4 8 -6 -3 -10 -1 -10 5 0 6 -4 8 -10 5
-5 -3 -12 6 -16 20 -3 13 -10 23 -14 20 -4 -2 -16 11 -26 30 -10 19 -23 35
-28 35 -5 0 -7 3 -3 6 3 4 -4 15 -16 25 -12 10 -19 18 -15 19 3 0 -6 13 -21
29 -16 17 -35 45 -44 63 -9 18 -17 29 -17 24 0 -5 -18 14 -40 43 -40 54 -59
77 -46 53z m-1700 -387 c3 -8 1 -15 -4 -15 -6 0 -10 7 -10 15 0 8 2 15 4 15 2
0 6 -7 10 -15z"/>
<path d="M5215 10630 c-3 -5 -1 -10 4 -10 6 0 11 5 11 10 0 6 -2 10 -4 10 -3
0 -8 -4 -11 -10z"/>
<path d="M5410 10620 c-9 -6 -10 -10 -3 -10 6 0 15 5 18 10 8 12 4 12 -15 0z"/>
<path d="M5250 10605 c0 -8 2 -15 4 -15 2 0 6 7 10 15 3 8 1 15 -4 15 -6 0
-10 -7 -10 -15z"/>
<path d="M5490 10589 c0 -5 5 -7 10 -4 6 3 10 8 10 11 0 2 -4 4 -10 4 -5 0
-10 -5 -10 -11z"/>
<path d="M5215 10580 c-4 -6 -10 -8 -14 -6 -4 3 -8 -1 -8 -9 0 -21 10 -19 25
5 7 11 10 20 8 20 -3 0 -8 -5 -11 -10z"/>
<path d="M5483 10545 c-3 -9 -3 -18 -1 -21 3 -3 8 4 11 16 6 23 -1 27 -10 5z"/>
<path d="M5533 10508 c1 -7 -4 -12 -11 -10 -8 1 -11 -2 -7 -8 5 -8 11 -8 21 1
7 6 11 15 8 20 -8 13 -14 11 -11 -3z"/>
<path d="M5122 10487 c10 -8 14 -18 10 -22 -4 -5 -1 -5 6 -1 17 10 15 14 -10
26 -21 10 -21 10 -6 -3z"/>
<path d="M5096 10472 c-3 -5 1 -9 9 -9 8 0 12 4 9 9 -3 4 -7 8 -9 8 -2 0 -6
-4 -9 -8z"/>
<path d="M5518 10463 c7 -3 16 -2 19 1 4 3 -2 6 -13 5 -11 0 -14 -3 -6 -6z"/>
<path d="M5115 10440 c3 -5 8 -10 11 -10 2 0 4 5 4 10 0 6 -5 10 -11 10 -5 0
-7 -4 -4 -10z"/>
<path d="M5610 10429 c0 -5 5 -7 10 -4 6 3 10 8 10 11 0 2 -4 4 -10 4 -5 0
-10 -5 -10 -11z"/>
<path d="M5097 10419 c7 -7 15 -10 18 -7 3 3 -2 9 -12 12 -14 6 -15 5 -6 -5z"/>
<path d="M3553 10395 c0 -8 4 -12 9 -9 5 3 6 10 3 15 -9 13 -12 11 -12 -6z"/>
<path d="M5597 10387 c4 -7 0 -8 -13 -3 -15 6 -16 5 -7 -5 9 -9 16 -9 26 -1 8
7 16 11 18 9 2 -1 3 0 1 2 -1 3 -9 6 -17 7 -9 1 -12 -2 -8 -9z"/>
<path d="M5060 10386 c0 -2 7 -7 16 -10 8 -3 12 -2 9 4 -6 10 -25 14 -25 6z"/>
<path d="M3506 10372 c-3 -5 1 -9 9 -9 8 0 12 4 9 9 -3 4 -7 8 -9 8 -2 0 -6
-4 -9 -8z"/>
<path d="M7050 10350 c0 -5 5 -10 11 -10 5 0 7 5 4 10 -3 6 -8 10 -11 10 -2 0
-4 -4 -4 -10z"/>
<path d="M3579 10338 c15 -21 31 -23 31 -6 0 6 -3 8 -7 5 -3 -4 -13 -1 -22 6
-14 11 -14 10 -2 -5z"/>
<path d="M6929 10333 c-13 -16 -12 -17 4 -4 9 7 17 15 17 17 0 8 -8 3 -21 -13z"/>
<path d="M5019 10323 c-13 -16 -12 -17 4 -4 9 7 17 15 17 17 0 8 -8 3 -21 -13z"/>
<path d="M3389 10313 c-13 -16 -12 -17 4 -4 9 7 17 15 17 17 0 8 -8 3 -21 -13z"/>
<path d="M3466 10312 c-3 -5 1 -9 9 -9 8 0 12 4 9 9 -3 4 -7 8 -9 8 -2 0 -6
-4 -9 -8z"/>
<path d="M3710 10310 c0 -5 5 -10 11 -10 5 0 7 5 4 10 -3 6 -8 10 -11 10 -2 0
-4 -4 -4 -10z"/>
<path d="M5673 10305 c0 -8 4 -12 9 -9 5 3 6 10 3 15 -9 13 -12 11 -12 -6z"/>
<path d="M7030 10311 c0 -6 4 -13 10 -16 6 -3 7 1 4 9 -7 18 -14 21 -14 7z"/>
<path d="M4994 10291 c0 -11 5 -17 13 -14 10 4 11 9 2 19 -15 18 -15 18 -15
-5z"/>
<path d="M3670 10293 c0 -5 5 -15 10 -23 7 -12 9 -10 7 8 -1 19 -17 33 -17 15z"/>
<path d="M4936 10268 c3 -5 10 -6 15 -3 13 9 11 12 -6 12 -8 0 -12 -4 -9 -9z"/>
<path d="M3712 10261 c-11 -7 -10 -9 3 -14 9 -4 14 -3 10 2 -3 5 1 12 7 14 7
3 9 6 3 6 -5 0 -16 -3 -23 -8z"/>
<path d="M7230 10266 c0 -2 8 -10 18 -17 15 -13 16 -12 3 4 -13 16 -21 21 -21
13z"/>
<path d="M3761 10246 c-20 -11 -21 -14 -7 -19 12 -5 15 -3 10 5 -5 7 -2 9 8 6
9 -4 15 0 15 8 0 8 -1 14 -1 14 -1 -1 -12 -7 -25 -14z"/>
<path d="M6926 10247 c-16 -12 -16 -13 2 -13 10 0 19 6 19 13 0 7 -1 13 -2 13
-1 0 -9 -6 -19 -13z"/>
<path d="M3430 10225 c5 -7 7 -15 3 -18 -3 -4 -1 -7 5 -7 6 0 14 5 17 10 3 6
1 10 -5 10 -6 0 -9 4 -6 8 3 5 -1 9 -9 9 -10 0 -12 -4 -5 -12z"/>
<path d="M4896 10232 c-3 -5 1 -9 9 -9 8 0 12 4 9 9 -3 4 -7 8 -9 8 -2 0 -6
-4 -9 -8z"/>
<path d="M4953 10225 c0 -8 4 -12 9 -9 5 3 6 10 3 15 -9 13 -12 11 -12 -6z"/>
<path d="M6830 10230 c0 -5 5 -10 11 -10 5 0 7 5 4 10 -3 6 -8 10 -11 10 -2 0
-4 -4 -4 -10z"/>
<path d="M3805 10209 c-4 -6 -5 -12 -2 -15 2 -3 7 2 10 11 7 17 1 20 -8 4z"/>
<path d="M3833 10205 c0 -8 4 -12 9 -9 5 3 6 10 3 15 -9 13 -12 11 -12 -6z"/>
<path d="M3375 10190 c3 -5 8 -10 11 -10 2 0 4 5 4 10 0 6 -5 10 -11 10 -5 0
-7 -4 -4 -10z"/>
<path d="M5766 10188 c3 -5 10 -6 15 -3 13 9 11 12 -6 12 -8 0 -12 -4 -9 -9z"/>
<path d="M6776 10191 c-3 -4 6 -7 19 -7 14 0 22 2 19 5 -8 8 -34 10 -38 2z"/>
<path d="M3420 10181 c0 -7 -5 -9 -12 -5 -7 5 -8 3 -3 -5 5 -9 10 -10 18 -2 6
6 8 14 4 18 -4 3 -7 1 -7 -6z"/>
<path d="M3960 10150 c-9 -6 -10 -10 -3 -10 6 0 15 5 18 10 8 12 4 12 -15 0z"/>
<path d="M7275 10139 c-4 -6 -5 -12 -2 -15 2 -3 7 2 10 11 7 17 1 20 -8 4z"/>
<path d="M4050 10129 c0 -5 5 -7 10 -4 6 3 10 8 10 11 0 2 -4 4 -10 4 -5 0
-10 -5 -10 -11z"/>
<path d="M7306 10132 c-3 -5 1 -9 9 -9 8 0 12 4 9 9 -3 4 -7 8 -9 8 -2 0 -6
-4 -9 -8z"/>
<path d="M3350 10112 c0 -5 7 -9 15 -9 8 0 12 4 9 9 -3 4 -9 8 -15 8 -5 0 -9
-4 -9 -8z"/>
<path d="M4815 10110 c-3 -5 -1 -10 4 -10 6 0 11 5 11 10 0 6 -2 10 -4 10 -3
0 -8 -4 -11 -10z"/>
<path d="M6656 10112 c-3 -5 1 -9 9 -9 8 0 12 4 9 9 -3 4 -7 8 -9 8 -2 0 -6
-4 -9 -8z"/>
<path d="M3393 10089 c-2 -23 3 -25 10 -4 4 8 3 16 -1 19 -4 3 -9 -4 -9 -15z"/>
<path d="M3990 10092 c0 -5 7 -9 15 -9 8 0 12 4 9 9 -3 4 -9 8 -15 8 -5 0 -9
-4 -9 -8z"/>
<path d="M4800 10070 c-9 -6 -10 -10 -3 -10 6 0 15 5 18 10 8 12 4 12 -15 0z"/>
<path d="M5853 10065 c0 -8 4 -12 9 -9 5 3 6 10 3 15 -9 13 -12 11 -12 -6z"/>
<path d="M4011 10054 c0 -11 3 -14 6 -6 3 7 2 16 -1 19 -3 4 -6 -2 -5 -13z"/>
<path d="M4056 10043 c-6 -14 -5 -15 5 -6 7 7 10 15 7 18 -3 3 -9 -2 -12 -12z"/>
<path d="M6570 10056 c0 -2 7 -7 16 -10 8 -3 12 -2 9 4 -6 10 -25 14 -25 6z"/>
<path d="M3365 10032 c-5 -4 -11 -14 -13 -22 -2 -12 1 -11 11 2 8 10 18 14 22
10 5 -4 5 -1 1 6 -8 14 -8 14 -21 4z"/>
<path d="M4066 10011 c3 -3 21 -6 39 -6 19 -1 32 1 29 4 -3 3 -21 6 -39 6 -19
1 -32 -1 -29 -4z"/>
<path d="M7336 9992 c-3 -5 1 -9 9 -9 8 0 12 4 9 9 -3 4 -7 8 -9 8 -2 0 -6 -4
-9 -8z"/>
<path d="M6395 9970 c-3 -5 -1 -10 4 -10 6 0 11 5 11 10 0 6 -2 10 -4 10 -3 0
-8 -4 -11 -10z"/>
<path d="M5935 9950 c-3 -5 -1 -10 4 -10 6 0 11 5 11 10 0 6 -2 10 -4 10 -3 0
-8 -4 -11 -10z"/>
<path d="M3322 9908 c-7 -7 -12 -17 -12 -22 0 -6 5 -3 11 7 6 9 15 14 21 11 7
-4 8 -2 4 4 -9 15 -9 15 -24 0z"/>
<path d="M4235 9910 c3 -5 8 -10 11 -10 2 0 4 5 4 10 0 6 -5 10 -11 10 -5 0
-7 -4 -4 -10z"/>
<path d="M4270 9888 c0 -4 4 -8 9 -8 6 0 12 4 15 8 3 5 -1 9 -9 9 -8 0 -15 -4
-15 -9z"/>
<path d="M4315 9890 c-3 -5 -1 -10 4 -10 6 0 11 5 11 10 0 6 -2 10 -4 10 -3 0
-8 -4 -11 -10z"/>
<path d="M4359 9883 c-13 -16 -12 -17 4 -4 9 7 17 15 17 17 0 8 -8 3 -21 -13z"/>
<path d="M6335 9890 c3 -5 8 -10 11 -10 2 0 4 5 4 10 0 6 -5 10 -11 10 -5 0
-7 -4 -4 -10z"/>
<path d="M6295 9869 c-3 -4 2 -6 10 -5 21 3 28 13 10 13 -9 0 -18 -4 -20 -8z"/>
<path d="M6036 9852 c-3 -5 1 -9 9 -9 8 0 12 4 9 9 -3 4 -7 8 -9 8 -2 0 -6 -4
-9 -8z"/>
<path d="M3283 9828 c-10 -17 -12 -57 -3 -63 4 -2 6 8 5 23 -1 15 2 33 8 40 5
6 7 12 4 12 -3 0 -9 -6 -14 -12z"/>
<path d="M4416 9803 c-6 -14 -5 -15 5 -6 7 7 10 15 7 18 -3 3 -9 -2 -12 -12z"/>
<path d="M6046 9808 c3 -5 10 -6 15 -3 13 9 11 12 -6 12 -8 0 -12 -4 -9 -9z"/>
<path d="M4525 9770 c10 -11 20 -20 23 -20 3 0 -3 9 -13 20 -10 11 -20 20 -23
20 -3 0 3 -9 13 -20z"/>
<path d="M4466 9771 c-3 -4 6 -7 19 -7 14 0 22 2 19 5 -8 8 -34 10 -38 2z"/>
<path d="M3280 9730 c-9 -6 -10 -10 -3 -10 6 0 15 5 18 10 8 12 4 12 -15 0z"/>
<path d="M4555 9730 c3 -5 8 -10 11 -10 2 0 4 5 4 10 0 6 -5 10 -11 10 -5 0
-7 -4 -4 -10z"/>
<path d="M3230 9716 c0 -2 7 -7 16 -10 8 -3 12 -2 9 4 -6 10 -25 14 -25 6z"/>
<path d="M3255 9661 c-3 -5 -2 -12 3 -15 5 -3 9 1 9 9 0 17 -3 19 -12 6z"/>
<path d="M3230 9651 c0 -6 4 -13 10 -16 6 -3 7 1 4 9 -7 18 -14 21 -14 7z"/>
<path d="M3185 9610 c-3 -6 1 -7 9 -4 18 7 21 14 7 14 -6 0 -13 -4 -16 -10z"/>
<path d="M3233 9613 c4 -3 2 -12 -5 -20 -8 -11 -7 -12 6 -7 18 7 22 34 4 34
-6 0 -8 -3 -5 -7z"/>
<path d="M2070 9496 c0 -2 7 -7 16 -10 8 -3 12 -2 9 4 -6 10 -25 14 -25 6z"/>
<path d="M2135 9479 c-4 -6 -5 -12 -2 -15 2 -3 7 2 10 11 7 17 1 20 -8 4z"/>
<path d="M1975 9470 c-3 -5 -1 -10 4 -10 6 0 11 5 11 10 0 6 -2 10 -4 10 -3 0
-8 -4 -11 -10z"/>
<path d="M2050 9470 c0 -5 5 -10 11 -10 5 0 7 5 4 10 -3 6 -8 10 -11 10 -2 0
-4 -4 -4 -10z"/>
<path d="M8476 9472 c-3 -5 1 -9 9 -9 8 0 12 4 9 9 -3 4 -7 8 -9 8 -2 0 -6 -4
-9 -8z"/>
<path d="M1906 9452 c-3 -5 1 -9 9 -9 8 0 12 4 9 9 -3 4 -7 8 -9 8 -2 0 -6 -4
-9 -8z"/>
<path d="M2076 9452 c-3 -5 1 -9 9 -9 8 0 12 4 9 9 -3 4 -7 8 -9 8 -2 0 -6 -4
-9 -8z"/>
<path d="M8610 9429 c0 -5 5 -7 10 -4 6 3 10 8 10 11 0 2 -4 4 -10 4 -5 0 -10
-5 -10 -11z"/>
<path d="M2094 9418 c3 -15 26 -23 26 -8 0 6 -4 9 -9 6 -5 -4 -12 -1 -14 4 -3
6 -4 5 -3 -2z"/>
<path d="M7515 9410 c-3 -5 -1 -10 4 -10 6 0 11 5 11 10 0 6 -2 10 -4 10 -3 0
-8 -4 -11 -10z"/>
<path d="M2230 9391 c0 -6 4 -13 10 -16 6 -3 7 1 4 9 -7 18 -14 21 -14 7z"/>
<path d="M2305 9369 c-4 -6 -5 -12 -2 -15 2 -3 7 2 10 11 7 17 1 20 -8 4z"/>
<path d="M2453 9365 c0 -8 4 -12 9 -9 5 3 6 10 3 15 -9 13 -12 11 -12 -6z"/>
<path d="M2476 9342 c-2 -4 -1 -14 4 -22 7 -11 9 -9 7 8 -1 24 -3 26 -11 14z"/>
<path d="M2669 9333 c-13 -16 -12 -17 4 -4 9 7 17 15 17 17 0 8 -8 3 -21 -13z"/>
<path d="M1855 9331 c-3 -5 -2 -12 3 -15 5 -3 9 1 9 9 0 17 -3 19 -12 6z"/>
<path d="M2515 9321 c-3 -5 -2 -12 3 -15 5 -3 9 1 9 9 0 17 -3 19 -12 6z"/>
<path d="M2586 9312 c-2 -4 4 -8 14 -8 10 0 16 4 14 8 -3 4 -9 8 -14 8 -5 0
-11 -4 -14 -8z"/>
<path d="M2646 9291 c-19 -7 -19 -8 0 -13 13 -3 21 0 21 8 0 8 -1 14 -1 13 -1
0 -10 -4 -20 -8z"/>
<path d="M2699 9283 c-13 -16 -12 -17 4 -4 9 7 17 15 17 17 0 8 -8 3 -21 -13z"/>
<path d="M3056 9268 c3 -5 10 -6 15 -3 13 9 11 12 -6 12 -8 0 -12 -4 -9 -9z"/>
<path d="M2798 9258 c12 -16 35 -18 48 -6 3 4 -2 5 -13 4 -10 -2 -25 2 -33 8
-13 9 -13 9 -2 -6z"/>
<path d="M2890 9250 c0 -5 5 -10 11 -10 5 0 7 5 4 10 -3 6 -8 10 -11 10 -2 0
-4 -4 -4 -10z"/>
<path d="M1873 9225 c0 -8 4 -12 9 -9 5 3 6 10 3 15 -9 13 -12 11 -12 -6z"/>
<path d="M2997 9220 c7 -8 23 -15 35 -17 12 -2 19 -1 16 3 -3 3 -12 6 -20 8
-7 1 -20 5 -28 10 -12 7 -13 6 -3 -4z"/>
<path d="M1873 9185 c0 -8 4 -12 9 -9 4 3 8 9 8 15 0 5 -4 9 -8 9 -5 0 -9 -7
-9 -15z"/>
<path d="M1836 9163 c-6 -14 -5 -15 5 -6 7 7 10 15 7 18 -3 3 -9 -2 -12 -12z"/>
<path d="M1865 9130 c-3 -6 1 -7 9 -4 18 7 21 14 7 14 -6 0 -13 -4 -16 -10z"/>
<path d="M1890 9085 c0 -8 2 -15 4 -15 2 0 6 7 10 15 3 8 1 15 -4 15 -6 0 -10
-7 -10 -15z"/>
<path d="M1890 9050 c0 -5 5 -10 11 -10 5 0 7 5 4 10 -3 6 -8 10 -11 10 -2 0
-4 -4 -4 -10z"/>
<path d="M1881 8978 c9 -16 29 -17 29 -2 0 3 -5 2 -12 -2 -7 -5 -9 -2 -6 8 4
8 0 15 -7 15 -10 0 -11 -5 -4 -19z"/>
<path d="M1866 8888 c3 -4 14 -6 24 -5 31 5 32 13 1 12 -16 0 -27 -3 -25 -7z"/>
<path d="M1856 8812 c-2 -4 -1 -14 4 -22 7 -11 9 -9 7 8 -1 24 -3 26 -11 14z"/>
<path d="M1890 8811 c0 -6 4 -13 10 -16 6 -3 7 1 4 9 -7 18 -14 21 -14 7z"/>
<path d="M1895 8739 c-4 -6 -5 -12 -2 -15 2 -3 7 2 10 11 7 17 1 20 -8 4z"/>
<path d="M1833 8645 c0 -8 4 -12 9 -9 5 3 6 10 3 15 -9 13 -12 11 -12 -6z"/>
<path d="M1896 8572 c-3 -5 1 -9 9 -9 8 0 12 4 9 9 -3 4 -7 8 -9 8 -2 0 -6 -4
-9 -8z"/>
<path d="M1915 8419 c-4 -6 -5 -12 -2 -15 2 -3 7 2 10 11 7 17 1 20 -8 4z"/>
<path d="M1893 8243 c0 -10 4 -10 16 -1 9 7 18 13 20 15 2 1 -5 1 -16 0 -11 0
-20 -7 -20 -14z"/>
<path d="M1830 8229 c0 -5 5 -7 10 -4 6 3 10 8 10 11 0 2 -4 4 -10 4 -5 0 -10
-5 -10 -11z"/>
<path d="M1856 8203 c-6 -14 -5 -15 5 -6 7 7 10 15 7 18 -3 3 -9 -2 -12 -12z"/>
<path d="M1904 8201 c0 -11 5 -17 13 -14 10 4 11 9 2 19 -15 18 -15 18 -15 -5z"/>
<path d="M1795 8179 c-4 -6 -5 -12 -2 -15 2 -3 7 2 10 11 7 17 1 20 -8 4z"/>
<path d="M1475 8171 c-3 -5 -2 -12 3 -15 5 -3 9 1 9 9 0 17 -3 19 -12 6z"/>
<path d="M1755 8170 c3 -5 8 -10 11 -10 2 0 4 5 4 10 0 6 -5 10 -11 10 -5 0
-7 -4 -4 -10z"/>
<path d="M1234 8128 c-4 -7 -4 -10 1 -6 4 4 15 2 24 -5 14 -11 14 -10 2 6 -16
20 -18 21 -27 5z"/>
<path d="M853 8115 c0 -8 4 -12 9 -9 5 3 6 10 3 15 -9 13 -12 11 -12 -6z"/>
<path d="M996 8111 c-3 -5 1 -14 9 -21 8 -7 12 -17 8 -24 -3 -6 -2 -7 2 -3 14
12 15 37 2 34 -7 -1 -11 4 -9 11 2 14 -4 16 -12 3z"/>
<path d="M905 8090 c-3 -6 1 -7 9 -4 18 7 21 14 7 14 -6 0 -13 -4 -16 -10z"/>
<path d="M1100 8095 c0 -2 6 -8 13 -14 10 -8 14 -7 14 2 0 8 -6 14 -14 14 -7
0 -13 -1 -13 -2z"/>
<path d="M1196 8088 c3 -5 10 -6 15 -3 13 9 11 12 -6 12 -8 0 -12 -4 -9 -9z"/>
<path d="M770 8070 c0 -5 5 -10 11 -10 5 0 7 5 4 10 -3 6 -8 10 -11 10 -2 0
-4 -4 -4 -10z"/>
<path d="M847 8049 c7 -7 15 -10 18 -7 3 3 -2 9 -12 12 -14 6 -15 5 -6 -5z"/>
<path d="M730 7850 c0 -5 5 -10 11 -10 5 0 7 5 4 10 -3 6 -8 10 -11 10 -2 0
-4 -4 -4 -10z"/>
<path d="M755 7770 c-3 -5 -1 -10 4 -10 6 0 11 5 11 10 0 6 -2 10 -4 10 -3 0
-8 -4 -11 -10z"/>
<path d="M790 7749 c0 -5 5 -7 10 -4 6 3 10 8 10 11 0 2 -4 4 -10 4 -5 0 -10
-5 -10 -11z"/>
<path d="M780 7696 c0 -2 8 -10 18 -17 15 -13 16 -12 3 4 -13 16 -21 21 -21
13z"/>
<path d="M827 7609 c7 -7 15 -10 18 -7 3 3 -2 9 -12 12 -14 6 -15 5 -6 -5z"/>
<path d="M874 7555 c1 -8 8 -21 16 -28 12 -10 12 -9 2 4 -6 9 -9 18 -6 21 3 3
1 9 -4 12 -6 3 -9 -1 -8 -9z"/>
<path d="M895 7459 c-4 -6 -5 -12 -2 -15 2 -3 7 2 10 11 7 17 1 20 -8 4z"/>
<path d="M915 7441 c-3 -5 -2 -12 3 -15 5 -3 9 1 9 9 0 17 -3 19 -12 6z"/>
<path d="M915 7339 c-4 -6 -5 -12 -2 -15 2 -3 7 2 10 11 7 17 1 20 -8 4z"/>
<path d="M910 7250 c0 -5 5 -10 11 -10 5 0 7 5 4 10 -3 6 -8 10 -11 10 -2 0
-4 -4 -4 -10z"/>
<path d="M970 7176 c0 -2 7 -7 16 -10 8 -3 12 -2 9 4 -6 10 -25 14 -25 6z"/>
<path d="M1033 7135 c0 -8 4 -12 9 -9 5 3 6 10 3 15 -9 13 -12 11 -12 -6z"/>
<path d="M1115 6870 c-3 -5 -1 -10 4 -10 6 0 11 5 11 10 0 6 -2 10 -4 10 -3 0
-8 -4 -11 -10z"/>
<path d="M1029 6773 c-13 -16 -12 -17 4 -4 16 13 21 21 13 21 -2 0 -10 -8 -17
-17z"/>
<path d="M699 6638 c-5 -18 -6 -38 -1 -34 7 8 12 36 6 36 -2 0 -4 -1 -5 -2z"/>
<path d="M600 6576 c0 -2 8 -10 18 -17 15 -13 16 -12 3 4 -13 16 -21 21 -21
13z"/>
<path d="M430 6510 c0 -5 5 -10 11 -10 5 0 7 5 4 10 -3 6 -8 10 -11 10 -2 0
-4 -4 -4 -10z"/>
<path d="M350 6491 c0 -6 4 -13 10 -16 6 -3 7 1 4 9 -7 18 -14 21 -14 7z"/>
<path d="M356 6451 c-3 -4 6 -7 19 -7 14 0 22 2 19 5 -8 8 -34 10 -38 2z"/>
<path d="M310 6406 c7 -7 13 -7 20 0 6 6 3 10 -10 10 -13 0 -16 -4 -10 -10z"/>
<path d="M265 6389 c-3 -4 2 -6 10 -5 21 3 28 13 10 13 -9 0 -18 -4 -20 -8z"/>
<path d="M233 6375 c0 -8 4 -12 9 -9 5 3 6 10 3 15 -9 13 -12 11 -12 -6z"/>
<path d="M96 6188 c3 -5 10 -6 15 -3 13 9 11 12 -6 12 -8 0 -12 -4 -9 -9z"/>
<path d="M155 6161 c-3 -5 -2 -12 3 -15 5 -3 9 1 9 9 0 17 -3 19 -12 6z"/>
<path d="M195 6101 c-3 -5 -2 -12 3 -15 5 -3 9 1 9 9 0 17 -3 19 -12 6z"/>
<path d="M235 6010 c3 -5 8 -10 11 -10 2 0 4 5 4 10 0 6 -5 10 -11 10 -5 0 -7
-4 -4 -10z"/>
<path d="M335 5910 c3 -5 8 -10 11 -10 2 0 4 5 4 10 0 6 -5 10 -11 10 -5 0 -7
-4 -4 -10z"/>
<path d="M370 5910 c0 -5 5 -10 11 -10 5 0 7 5 4 10 -3 6 -8 10 -11 10 -2 0
-4 -4 -4 -10z"/>
<path d="M355 5861 c-3 -5 -2 -12 3 -15 5 -3 9 1 9 9 0 17 -3 19 -12 6z"/>
<path d="M420 5856 c0 -2 8 -10 18 -17 15 -13 16 -12 3 4 -13 16 -21 21 -21
13z"/>
<path d="M576 5668 c3 -5 10 -6 15 -3 13 9 11 12 -6 12 -8 0 -12 -4 -9 -9z"/>
<path d="M715 5510 c3 -5 8 -10 11 -10 2 0 4 5 4 10 0 6 -5 10 -11 10 -5 0 -7
-4 -4 -10z"/>
<path d="M835 5369 c-3 -4 2 -6 10 -5 21 3 28 13 10 13 -9 0 -18 -4 -20 -8z"/>
<path d="M855 5321 c-3 -5 -2 -12 3 -15 5 -3 9 1 9 9 0 17 -3 19 -12 6z"/>
<path d="M720 5150 c-9 -6 -10 -10 -3 -10 6 0 15 5 18 10 8 12 4 12 -15 0z"/>
<path d="M550 5029 c0 -5 5 -7 10 -4 6 3 10 8 10 11 0 2 -4 4 -10 4 -5 0 -10
-5 -10 -11z"/>
<path d="M590 4990 c0 -5 5 -10 11 -10 5 0 7 5 4 10 -3 6 -8 10 -11 10 -2 0
-4 -4 -4 -10z"/>
<path d="M516 4923 c-6 -14 -5 -15 5 -6 7 7 10 15 7 18 -3 3 -9 -2 -12 -12z"/>
<path d="M435 4819 c-4 -6 -5 -12 -2 -15 2 -3 7 2 10 11 7 17 1 20 -8 4z"/>
<path d="M293 4705 c0 -8 4 -12 9 -9 5 3 6 10 3 15 -9 13 -12 11 -12 -6z"/>
<path d="M196 4603 c-6 -14 -5 -15 5 -6 7 7 10 15 7 18 -3 3 -9 -2 -12 -12z"/>
<path d="M230 4609 c0 -5 5 -7 10 -4 6 3 10 8 10 11 0 2 -4 4 -10 4 -5 0 -10
-5 -10 -11z"/>
<path d="M156 4528 c3 -5 10 -6 15 -3 13 9 11 12 -6 12 -8 0 -12 -4 -9 -9z"/>
<path d="M233 4265 c0 -8 4 -12 9 -9 5 3 6 10 3 15 -9 13 -12 11 -12 -6z"/>
<path d="M1446 2532 c-3 -5 1 -9 9 -9 8 0 12 4 9 9 -3 4 -7 8 -9 8 -2 0 -6 -4
-9 -8z"/>
</g>
</svg>
